<?xml version="1.0" encoding="UTF-8" standalone="no"?>
<svg
   xmlns:dc="http://purl.org/dc/elements/1.1/"
   xmlns:cc="http://creativecommons.org/ns#"
   xmlns:rdf="http://www.w3.org/1999/02/22-rdf-syntax-ns#"
   xmlns:svg="http://www.w3.org/2000/svg"
   xmlns="http://www.w3.org/2000/svg"
   xmlns:sodipodi="http://sodipodi.sourceforge.net/DTD/sodipodi-0.dtd"
   xmlns:inkscape="http://www.inkscape.org/namespaces/inkscape"
   version="1.1"
   width="24"
   height="24"
   viewBox="0 0 24 24"
   id="svg3033"
   inkscape:version="0.48.5 r10040"
   sodipodi:docname="refresh.svg">
  <metadata
     id="metadata3041">
    <rdf:RDF>
      <cc:Work
         rdf:about="">
        <dc:format>image/svg+xml</dc:format>
        <dc:type
           rdf:resource="http://purl.org/dc/dcmitype/StillImage" />
        <dc:title />
      </cc:Work>
    </rdf:RDF>
  </metadata>
  <defs
     id="defs3039">
    <filter
       inkscape:label="Invert"
       x="0"
       y="0"
       width="1"
       height="1"
       inkscape:menu="Color"
       inkscape:menu-tooltip="Invert colors"
       color-interpolation-filters="sRGB"
       id="filter3043">
      <feColorMatrix
         type="saturate"
         values="1"
         result="fbSourceGraphic"
         id="feColorMatrix3045" />
      <feColorMatrix
         in="fbSourceGraphic"
         values="-1 0 0 0 1 0 -1 0 0 1 0 0 -1 0 1 0 0 0 1 0 "
         id="feColorMatrix3047" />
    </filter>
  </defs>
  <sodipodi:namedview
     pagecolor="#ffffff"
     bordercolor="#666666"
     borderopacity="1"
     objecttolerance="10"
     gridtolerance="10"
     guidetolerance="10"
     inkscape:pageopacity="0"
     inkscape:pageshadow="2"
     inkscape:window-width="1366"
     inkscape:window-height="720"
     id="namedview3037"
     showgrid="false"
     inkscape:zoom="16.263456"
     inkscape:cx="7.7088905"
     inkscape:cy="10.426413"
     inkscape:window-x="1366"
     inkscape:window-y="29"
     inkscape:window-maximized="1"
     inkscape:current-layer="svg3033" />
  <path
     d="m 12.668876,5.6561175 0,-3.32 4.95,4.95 -4.95,4.9500005 0,-4.5500005 c -1.54,-0.03 -3.0699995,0.55 -4.2499995,1.73 -2.34,2.3400005 -2.34,6.1400005 0,8.4800005 2.3399995,2.34 6.1499995,2.34 8.4899995,0 1.84,-1.84 2.23,-4.6 1.17,-6.82 l 1.47,-1.4700005 c 1.81,3.0500005 1.41,7.0500005 -1.23,9.7100005 -3.12,3.12 -8.18,3.11 -11.2999995,-0.01 -3.13,-3.15 -3.14,-8.18 -0.01,-11.3100005 1.56,-1.56 3.6099995,-2.34 5.6599995,-2.34 z"
     id="path3035"
     inkscape:connector-curvature="0"
     style="fill:#282828;fill-opacity:1;stroke:#ffffff;stroke-width:0.1;stroke-linecap:butt;stroke-miterlimit:0;stroke-opacity:1;stroke-dasharray:none;filter:url(#filter3043)"
     transform="matrix(1.1970049,0,0,1.1970049,-3.0907915,-2.3628008)" />
</svg>
