<?xml version="1.0" encoding="UTF-8" standalone="no"?>
<svg
   xmlns="http://www.w3.org/2000/svg"
   width="12.877993"
   height="15.84985"
   viewBox="0 0 0.65394442 0.80485535"
>
   <path
      d="M 0.30182061,0.35212408 H 0.4024276 v 0.0503034 H 0.30182061 V 0.50303436 H 0.25151722 V 0.40242747 h -0.100607 v -0.0503034 h 0.100607 V 0.25151719 h 0.0503034 z M 0.15091031,0.65394472 H 0.4024275 V 0.60364124 H 0.15091031 Z M 0.37727575,0.10060688 0.55333778,0.27666891 v 0.47788261 c 0,0.0276677 -0.0226359,0.0503038 -0.0503034,0.0503038 H 0.05030342 C 0.02263664,0.804855 0,0.78221854 0,0.75455152 V 0.15091034 C 0,0.12324356 0.02263647,0.10060688 0.05030342,0.10060688 Z M 0.50303433,0.30182062 0.35212405,0.15091034 H 0.05030342 V 0.75455152 H 0.50303433 Z M 0.42757923,0 h -0.2766689 v 0.05030345 h 0.25151719 l 0.20121374,0.20121376 v 0.40242751 h 0.0503032 V 0.22636546 Z"
      id="path2"
      style="fill:#505050;fill-opacity:1;fill-rule:evenodd"
   />
</svg>
