<?xml version="1.0" encoding="UTF-8" standalone="no"?>
<svg
   xmlns="http://www.w3.org/2000/svg"
   width="16"
   height="22"
   viewBox="0 0 16 22"
>
   <path
      id="path2"
      d="M 1,8.0054175 C 1,11.105547 1.011249,13.544901 1.011249,17 c 0,0.552285 0.4477153,1 1,1 h 11.977502 c 0.552285,0 1,-0.447715 1,-1 0,-4.258522 0.01125,-2.005842 0.01125,-6.086762 0,-0.61967 -0.33665,-0.9213104 -0.898131,-0.9213104 -3.538202,0 -9.7803275,0.00663 -12.1005925,0.00663 -0.6891048,0 -1.0012765,0.2548454 -1.0012765,0.8818584 z M 2.011249,10.875 h 12.01046 V 17 H 2.011249 Z"
      style="fill:#505050;fill-opacity:1;fill-rule:evenodd;stroke-width:0.85618168"
   />
   <path
      id="path835"
      style="fill:none;fill-opacity:1;stroke:#505050;stroke-width:1px;stroke-linecap:butt;stroke-linejoin:miter;stroke-opacity:1"
      d="m 10.570374,5.8845521 -2.5541679,-1.6479183 -2.380585,1.61496 m 2.3437204,3.030376 0.048583,-4.8038989"
   />
</svg>
