<?xml version="1.0" encoding="UTF-8" standalone="no"?>
<svg
   xmlns="http://www.w3.org/2000/svg"
   width="16"
   height="16"
   viewBox="0 0 16 16"
>
   <path
      d="m 2.7325931,9 h 7.8199999 c 0.59,0 0.59,-0.41 0.59,-1 0,-0.59 0,-1 -0.59,-1 H 2.7425931 c -0.59,0 -0.59,0.41 -0.59,1 0,0.59 0,1 0.59,1 z m 5.82,-5 c 0.59,0 0.59,-0.41 0.59,-1 0,-0.59 0,-1 -0.59,-1 h -5.81 c -0.59,0 -0.59,0.41 -0.59,1 0,0.59 0,1 0.59,1 z m 1.9999999,8 H 2.7425931 c -0.59,0 -0.59,0.41 -0.59,1 0,0.59 0,1 0.59,1 h 7.8099999 c 0.59,0 0.59,-0.41 0.59,-1 0,-0.59 0,-1 -0.59,-1 z"
      id="path2"
      style="fill:#cccccc;fill-opacity:1;fill-rule:evenodd"
   />
   <path
     style="fill:#9E121D;fill-opacity:1;fill-rule:evenodd"
     id="path819"
     d="M 15.773703,1.8205217 14.445292,0.6757226 13.177076,2.138604 11.627866,0.71909164 10.370408,2.0867187 11.932622,3.5135884 10.569007,4.9251434 11.873074,6.1676029 13.256407,4.6759675 14.714046,5.9453951 15.99,4.5348827 14.501239,3.245925 Z"
   />
</svg>
