<?xml version="1.0" encoding="UTF-8" standalone="no"?>
<svg
   xmlns:dc="http://purl.org/dc/elements/1.1/"
   xmlns:cc="http://creativecommons.org/ns#"
   xmlns:rdf="http://www.w3.org/1999/02/22-rdf-syntax-ns#"
   xmlns:svg="http://www.w3.org/2000/svg"
   xmlns="http://www.w3.org/2000/svg"
   xmlns:sodipodi="http://sodipodi.sourceforge.net/DTD/sodipodi-0.dtd"
   xmlns:inkscape="http://www.inkscape.org/namespaces/inkscape"
   aria-hidden="true"
   width="16"
   height="16"
   style="-ms-transform: rotate(360deg); -webkit-transform: rotate(360deg); transform: rotate(360deg);"
   preserveAspectRatio="xMidYMid meet"
   viewBox="0 0 16 16"
   version="1.1"
   id="svg4"
   sodipodi:docname="tasklist.svg"
   inkscape:version="0.92.3 (2405546, 2018-03-11)">
  <metadata
     id="metadata10">
    <rdf:RDF>
      <cc:Work
         rdf:about="">
        <dc:format>image/svg+xml</dc:format>
        <dc:type
           rdf:resource="http://purl.org/dc/dcmitype/StillImage" />
      </cc:Work>
    </rdf:RDF>
  </metadata>
  <defs
     id="defs8" />
  <sodipodi:namedview
     pagecolor="#ffffff"
     bordercolor="#666666"
     borderopacity="1"
     objecttolerance="10"
     gridtolerance="10"
     guidetolerance="10"
     inkscape:pageopacity="0"
     inkscape:pageshadow="2"
     inkscape:window-width="1920"
     inkscape:window-height="1051"
     id="namedview6"
     showgrid="false"
     inkscape:zoom="14.75"
     inkscape:cx="8"
     inkscape:cy="8"
     inkscape:window-x="0"
     inkscape:window-y="0"
     inkscape:window-maximized="1"
     inkscape:current-layer="svg4" />
  <path
     fill-rule="evenodd"
     d="M15.41 9H7.59C7 9 7 8.59 7 8c0-.59 0-1 .59-1h7.81c.59 0 .59.41.59 1 0 .59 0 1-.59 1h.01zM9.59 4C9 4 9 3.59 9 3c0-.59 0-1 .59-1h5.81c.59 0 .59.41.59 1 0 .59 0 1-.59 1H9.59zM0 3.91l1.41-1.3L3 4.2 7.09 0 8.5 1.41 3 6.91l-3-3zM7.59 12h7.81c.59 0 .59.41.59 1 0 .59 0 1-.59 1H7.59C7 14 7 13.59 7 13c0-.59 0-1 .59-1z"
     fill="#626262"
     id="path2"
     style="fill:#cccccc;fill-opacity:1" />
</svg>
